<svg width="96" height="96" viewBox="0 0 96 96" fill="none" xmlns="http://www.w3.org/2000/svg">
<path d="M19.4256 67.2C17.1803 63.3082 15.9989 58.894 16 54.401C16.0011 49.9079 17.1847 45.4943 19.4318 41.6036C21.679 37.7129 24.9105 34.4821 28.8018 32.2359C32.6931 29.9897 37.107 28.8072 41.6 28.8072C46.093 28.8072 50.5069 29.9897 54.3982 32.2359C58.2895 34.4821 61.521 37.7129 63.7682 41.6036C66.0153 45.4943 67.1989 49.9079 67.2 54.401C67.2011 58.894 66.0197 63.3082 63.7744 67.2H92.8C93.6487 67.2 94.4626 66.8629 95.0627 66.2627C95.6629 65.6626 96 64.8487 96 64V3.2C96 2.35131 95.6629 1.53737 95.0627 0.937258C94.4626 0.337142 93.6487 0 92.8 0H3.2C2.3513 0 1.53737 0.337142 0.937256 0.937258C0.337135 1.53737 0 2.35131 0 3.2V64C0 64.8487 0.337135 65.6626 0.937256 66.2627C1.53737 66.8629 2.3513 67.2 3.2 67.2H19.4256Z" fill="#A7A7A7"/>
<path d="M56 88H64V84.8H56.6624L47.5312 75.6688L45.2688 77.9312L54.8688 87.5312C55.1688 87.8313 55.5757 87.9999 56 88Z" fill="#DBDBDB"/>
<path d="M14.3997 75.2L20.5805 69.0192C22.3194 71.5135 24.4861 73.6803 26.9805 75.4192L20.7997 81.6L14.3997 75.2Z" fill="#707070" fill-opacity="0.8"/>
<path d="M64.8482 62.4H89.6002C90.0245 62.4 90.4315 62.2315 90.7316 61.9314C91.0316 61.6313 91.2002 61.2244 91.2002 60.8V16H88.0002V59.2H64.8482V62.4Z" fill="#DBDBDB"/>
<path d="M82.0205 55.4816L84.3789 53.3184L66.7789 34.1184C66.629 33.955 66.4468 33.8245 66.2438 33.7353C66.0408 33.6461 65.8214 33.6 65.5997 33.6H65.5869C65.363 33.6015 65.142 33.65 64.938 33.7424C64.7341 33.8347 64.5518 33.9688 64.4029 34.136L60.1373 38.936L62.5373 41.064L65.6253 37.5872L82.0205 55.4816Z" fill="#DBDBDB"/>
<path d="M12.8004 73.6L22.4004 83.2L11.5892 94.0112C10.3162 95.2844 8.58962 95.9998 6.78921 96C5.89763 96.0002 5.01475 95.8247 4.191 95.4836C3.36725 95.1426 2.61878 94.6425 1.98834 94.0121C1.3579 93.3816 0.857845 92.6332 0.51675 91.8094C0.175655 90.9857 0.000202179 90.1028 0.000411987 89.2112C0.000627518 87.4108 0.716015 85.6842 1.98921 84.4112L12.8004 73.6Z" fill="#707070"/>
<path d="M20.7997 16H28.7998V19.2H24.6621L35.6094 30.1472L33.347 32.4096L22.3997 21.4624V25.6H19.1997V17.6C19.1997 17.1757 19.3683 16.7687 19.6684 16.4686C19.9684 16.1686 20.3754 16 20.7997 16Z" fill="#DBDBDB"/>
<path d="M60.8002 6.39999H80.0002C81.7675 6.39999 83.2002 7.83268 83.2002 9.59999V22.4C83.2002 24.1673 81.7675 25.6 80.0002 25.6H60.8002C59.0329 25.6 57.6002 24.1673 57.6002 22.4V9.59999C57.6002 7.83268 59.0329 6.39999 60.8002 6.39999Z" fill="#DBDBDB"/>
<path d="M78.4004 11.2H62.4004V14.4H78.4004V11.2Z" fill="white"/>
<path d="M78.4004 17.6H62.4004V20.8H78.4004V17.6Z" fill="white"/>
<path d="M67.1996 76.8H86.3996C88.1669 76.8 89.5996 78.2327 89.5996 80V92.8C89.5996 94.5673 88.1669 96 86.3996 96H67.1996C65.4323 96 63.9996 94.5673 63.9996 92.8V80C63.9996 78.2327 65.4323 76.8 67.1996 76.8Z" fill="#DBDBDB"/>
<path d="M84.7998 81.6H68.7998V84.8H84.7998V81.6Z" fill="white"/>
<path d="M84.7998 88H68.7998V91.2H84.7998V88Z" fill="white"/>
<path d="M42.1084 31.0032L50.486 17.6H57.5996V14.4H49.5996C49.3283 14.4 49.0613 14.469 48.824 14.6006C48.5866 14.7321 48.3867 14.9219 48.2428 15.152L39.3949 29.3088L42.1084 31.0032Z" fill="#DBDBDB"/>
<path d="M41.6002 80C27.4617 80 16.0002 68.5385 16.0002 54.4C16.0002 40.2615 27.4617 28.8 41.6002 28.8C55.7387 28.8 67.2002 40.2615 67.2002 54.4C67.2002 68.5385 55.7387 80 41.6002 80Z" fill="#707070"/>
<path d="M41.5998 73.6001C30.9959 73.6001 22.3998 65.0039 22.3998 54.4C22.3998 43.7962 30.9959 35.2 41.5998 35.2C52.2037 35.2 60.7998 43.7962 60.7998 54.4C60.7998 65.0039 52.2037 73.6001 41.5998 73.6001Z" fill="white"/>
<path d="M59.0397 62.4H38.3997V59.2H60.1709C59.8899 60.2982 59.5113 61.3692 59.0397 62.4Z" fill="#DBDBDB"/>
<path d="M40.7072 35.2448L52.7312 47.2688L56.8 42.696C57.4799 43.5724 58.0826 44.5061 58.6016 45.4864L54 50.664C53.8549 50.8271 53.678 50.9588 53.4802 51.051C53.2823 51.1431 53.0677 51.1939 52.8496 51.2H52.8C52.3757 51.1999 51.9688 51.0313 51.6688 50.7312L36.7744 35.84C38.061 35.505 39.3791 35.3055 40.7072 35.2448Z" fill="#DBDBDB"/>
</svg>
