<svg width="110" height="110" viewBox="0 0 110 110" fill="none" xmlns="http://www.w3.org/2000/svg">
<g clip-path="url(#clip0_1178_246)">
<path d="M107.79 82.6118L68.8667 11.0014C65.8989 6.09822 60.7379 3.13037 54.996 3.13037C49.2541 3.13037 44.0931 6.09822 41.1252 11.0014C41.1252 11.0654 41.0612 11.0654 41.0612 11.1303L2.26645 82.4829C-0.700975 87.5796 -0.765428 93.644 2.13754 98.7408C5.04051 103.837 10.2659 106.87 16.137 106.87H93.8548C99.7258 106.87 104.951 103.837 107.854 98.7408C110.758 93.6438 110.693 87.5794 107.79 82.6118Z" fill="#E74111"/>
<path d="M16.1353 100.418C12.5631 100.418 9.50758 98.6412 7.74349 95.5481C5.97941 92.4515 6.01078 88.8699 7.84426 85.7261L46.3453 14.9179L47.5422 13.6926L47.5485 13.0719C49.4006 10.8635 52.0847 9.58179 54.9954 9.58179C58.4226 9.58179 61.5477 11.3616 63.3496 14.3417L102.116 85.682C103.981 88.8763 103.987 92.4958 102.248 95.5481C100.484 98.6416 97.4285 100.418 93.8563 100.418H16.1353Z" fill="white"/>
<path d="M61.4476 35.9037V61.7095C61.4476 65.2578 58.5444 68.1608 54.9962 68.1608C51.4481 68.1608 48.5449 65.2576 48.5449 61.7095V35.9037C48.5449 32.3554 51.4481 29.4524 54.9962 29.4524C58.5444 29.4524 61.4476 32.3554 61.4476 35.9037Z" fill="#FBBA00"/>
<path d="M54.9961 74.6123C49.6411 74.6123 45.3188 78.9345 45.3188 84.2895C45.3188 89.6441 49.6411 93.9667 54.9961 93.9667C60.351 93.9667 64.6733 89.6441 64.6733 84.2895C64.6733 78.9347 60.3508 74.6123 54.9961 74.6123Z" fill="#FBBA00"/>
</g>
<defs>
<clipPath id="clip0_1178_246">
<rect width="110" height="110" fill="white"/>
</clipPath>
</defs>
</svg>
