<svg width="24" height="24" viewBox="0 0 24 24" fill="none" xmlns="http://www.w3.org/2000/svg">
<path d="M22.8673 12.7898C22.569 12.7898 22.2828 12.9083 22.0718 13.1193C21.8608 13.3303 21.7423 13.6164 21.7423 13.9148V18.4434C21.7413 19.318 21.3934 20.1566 20.775 20.7751C20.1565 21.3936 19.3179 21.7415 18.4433 21.7424H5.55639C4.68173 21.7415 3.84317 21.3936 3.22469 20.7751C2.60621 20.1566 2.25832 19.318 2.25732 18.4434V5.55651C2.25832 4.68185 2.60621 3.84329 3.22469 3.22482C3.84317 2.60634 4.68173 2.25844 5.55639 2.25745H10.085C10.3833 2.25745 10.6695 2.13892 10.8805 1.92794C11.0915 1.71696 11.21 1.43081 11.21 1.13245C11.21 0.834078 11.0915 0.54793 10.8805 0.336951C10.6695 0.125973 10.3833 0.00744629 10.085 0.00744629H5.55639C4.08522 0.00918306 2.6748 0.594373 1.63453 1.63465C0.59425 2.67492 0.00906099 4.08534 0.00732422 5.55651V18.4434C0.00906099 19.9146 0.59425 21.325 1.63453 22.3652C2.6748 23.4055 4.08522 23.9907 5.55639 23.9924H18.4433C19.9144 23.9907 21.3248 23.4055 22.3651 22.3652C23.4054 21.325 23.9906 19.9146 23.9923 18.4434V13.9148C23.9923 13.6164 23.8738 13.3303 23.6628 13.1193C23.4518 12.9083 23.1657 12.7898 22.8673 12.7898Z" fill="#1D267D"/>
<path d="M22.8432 9.50513e-08H15.8495C15.5549 -5.6399e-05 15.272 0.115441 15.0617 0.321678C14.8513 0.527915 14.7302 0.808435 14.7245 1.10297C14.7127 1.73438 15.2438 2.25 15.8748 2.25H20.1559L11.1962 11.2125C10.9852 11.4235 10.8667 11.7096 10.8667 12.008C10.8667 12.3063 10.9852 12.5925 11.1962 12.8034C11.4072 13.0144 11.6933 13.1329 11.9916 13.1329C12.29 13.1329 12.5761 13.0144 12.7871 12.8034L21.7496 3.84375V8.14031C21.7496 8.43868 21.8681 8.72483 22.0791 8.93581C22.2901 9.14679 22.5762 9.26531 22.8746 9.26531C23.173 9.26531 23.4591 9.14679 23.6701 8.93581C23.8811 8.72483 23.9996 8.43868 23.9996 8.14031V1.15594C23.9996 1.0041 23.9697 0.853747 23.9116 0.713471C23.8535 0.573196 23.7683 0.445745 23.6609 0.338401C23.5535 0.231056 23.426 0.14592 23.2857 0.087856C23.1454 0.0297923 22.995 -6.14781e-05 22.8432 9.50513e-08Z" fill="#37D7BD"/>
</svg>
