<svg width="24" height="24" viewBox="0 0 24 24" fill="none" xmlns="http://www.w3.org/2000/svg">
<path d="M11.0235 0.0388967C5.26435 0.494069 0.578974 5.11779 0.0518019 10.8708C-0.170405 13.2972 0.332354 15.5901 1.36601 17.561C1.74173 18.2772 1.78932 19.1201 1.51084 19.8794L7.77602e-05 24L4.36559 22.5447C5.08849 22.3039 5.88173 22.3494 6.56035 22.6957C8.53414 23.7029 10.822 24.1808 13.2406 23.9375C18.9481 23.3628 23.5085 18.6964 23.9612 12.9782C24.5471 5.58124 18.4201 -0.546207 11.0235 0.0388967Z" fill="#1D267D"/>
<path d="M12.0001 21.931C17.4849 21.931 21.9312 17.4848 21.9312 12C21.9312 6.51524 17.4849 2.06897 12.0001 2.06897C6.51537 2.06897 2.06909 6.51524 2.06909 12C2.06909 17.4848 6.51537 21.931 12.0001 21.931Z" fill="white"/>
<path d="M12.0002 7.44828C12.6858 7.44828 13.2415 6.89249 13.2415 6.2069C13.2415 5.5213 12.6858 4.96552 12.0002 4.96552C11.3146 4.96552 10.7588 5.5213 10.7588 6.2069C10.7588 6.89249 11.3146 7.44828 12.0002 7.44828Z" fill="#1D267D"/>
<path d="M12.0002 19.0345C11.3145 19.0345 10.7588 18.4787 10.7588 17.7931V10.7586C10.7588 10.0729 11.3145 9.51721 12.0002 9.51721C12.6858 9.51721 13.2415 10.0729 13.2415 10.7586V17.7931C13.2415 18.4787 12.6858 19.0345 12.0002 19.0345Z" fill="#1D267D"/>
</svg>
