<svg width="24" height="24" viewBox="0 0 24 24" fill="none" xmlns="http://www.w3.org/2000/svg">
<path fill-rule="evenodd" clip-rule="evenodd" d="M12 0C5.38125 0 0 5.38125 0 12C0 18.6187 5.38125 24 12 24C18.6187 24 24 18.6187 24 12C24 5.38125 18.6187 0 12 0ZM17.8031 7.95469C18.0938 8.24531 18.0938 8.72344 17.8031 9.01406L10.7719 16.0453C10.6266 16.1906 10.4344 16.2656 10.2422 16.2656C10.05 16.2656 9.85781 16.1906 9.7125 16.0453L6.19688 12.5297C5.90625 12.2391 5.90625 11.7609 6.19688 11.4703C6.4875 11.1797 6.96563 11.1797 7.25625 11.4703L10.2422 14.4563L16.7438 7.95469C17.0344 7.65937 17.5125 7.65937 17.8031 7.95469Z" fill="#4BAE4F"/>
</svg>
