<svg width="48" height="48" viewBox="0 0 48 48" fill="none" xmlns="http://www.w3.org/2000/svg">
<path d="M47.4412 22.3583C46.7117 21.182 45.4226 20.4789 43.9929 20.4789H12.1589C10.5809 20.4789 9.14576 21.3684 8.50159 22.7457L0.081665 40.3997C0.399536 41.6924 1.60693 42.6581 3.04505 42.6581H36.9141C38.3621 42.6581 39.6856 41.8392 40.3323 40.5436L47.61 25.9567C48.1846 24.8024 48.1209 23.4573 47.4412 22.3583Z" fill="#E74111"/>
<path d="M6.78772 20.0303C7.43116 18.6533 8.8667 17.7634 10.4451 17.7634H40.422V13.9292C40.422 12.3486 39.0886 11.0625 37.4498 11.0625H19.9706C19.945 11.0625 19.9274 11.0559 19.9208 11.0512L16.7922 6.67676C16.2382 5.90076 15.323 5.4375 14.3452 5.4375H2.9729C1.33337 5.4375 0 6.72363 0 8.3042V34.2612L6.78772 20.0303Z" fill="#FBBA00"/>
</svg>
