<svg width="44" height="44" viewBox="0 0 44 44" fill="none" xmlns="http://www.w3.org/2000/svg">
<path d="M22 0C17.6488 0 13.3953 1.29028 9.77746 3.70767C6.15958 6.12506 3.33979 9.56099 1.67466 13.581C0.00953233 17.6009 -0.426141 22.0244 0.422734 26.292C1.27161 30.5596 3.36691 34.4796 6.44366 37.5564C9.52042 40.6331 13.4404 42.7284 17.708 43.5773C21.9756 44.4262 26.3991 43.9905 30.419 42.3254C34.439 40.6602 37.875 37.8404 40.2923 34.2225C42.7097 30.6047 44 26.3512 44 22C43.9931 16.1674 41.6731 10.5756 37.5488 6.45125C33.4244 2.32694 27.8327 0.00688094 22 0ZM30.484 27.658C30.675 27.8425 30.8274 28.0632 30.9322 28.3072C31.037 28.5512 31.0922 28.8136 31.0945 29.0792C31.0968 29.3448 31.0462 29.6081 30.9457 29.8539C30.8451 30.0997 30.6966 30.323 30.5088 30.5108C30.321 30.6986 30.0977 30.8471 29.8519 30.9476C29.6061 31.0482 29.3428 31.0988 29.0772 31.0965C28.8116 31.0942 28.5492 31.039 28.3052 30.9342C28.0612 30.8294 27.8405 30.677 27.656 30.486L22 24.828L16.344 30.486C15.9668 30.8503 15.4616 31.0519 14.9372 31.0474C14.4128 31.0428 13.9112 30.8325 13.5404 30.4616C13.1696 30.0908 12.9592 29.5892 12.9547 29.0648C12.9501 28.5404 13.1517 28.0352 13.516 27.658L19.172 22L13.516 16.342C13.325 16.1575 13.1726 15.9368 13.0678 15.6928C12.963 15.4488 12.9078 15.1864 12.9055 14.9208C12.9032 14.6552 12.9538 14.3919 13.0544 14.1461C13.1549 13.9003 13.3034 13.677 13.4912 13.4892C13.679 13.3014 13.9023 13.1529 14.1481 13.0524C14.3939 12.9518 14.6573 12.9012 14.9228 12.9035C15.1884 12.9058 15.4508 12.961 15.6948 13.0658C15.9388 13.1706 16.1595 13.323 16.344 13.514L22 19.172L27.656 13.514C27.8405 13.323 28.0612 13.1706 28.3052 13.0658C28.5492 12.961 28.8116 12.9058 29.0772 12.9035C29.3428 12.9012 29.6061 12.9518 29.8519 13.0524C30.0977 13.1529 30.321 13.3014 30.5088 13.4892C30.6966 13.677 30.8451 13.9003 30.9457 14.1461C31.0462 14.3919 31.0968 14.6552 31.0945 14.9208C31.0922 15.1864 31.037 15.4488 30.9322 15.6928C30.8274 15.9368 30.675 16.1575 30.484 16.342L24.828 22L30.484 27.658Z" fill="#E74111"/>
</svg>
