<svg width="24" height="24" viewBox="0 0 24 24" fill="none" xmlns="http://www.w3.org/2000/svg">
<g clip-path="url(#clip0_1415_301)">
<g clip-path="url(#clip1_1415_301)">
<path d="M23.9101 0.359203C23.7857 0.137391 23.5512 0 23.2969 0H0.703113C0.448769 0 0.214253 0.137391 0.0898471 0.359203C-0.0345122 0.581016 -0.0294966 0.85275 0.10316 1.06973L8.2843 14.4572V21.0375C8.2843 21.3306 8.46613 21.593 8.74049 21.6959L14.7655 23.9552C14.8455 23.9853 14.9292 24 15.0124 24C15.1536 24 15.2936 23.9575 15.4129 23.8748C15.6025 23.7434 15.7155 23.5275 15.7155 23.2969V14.4572L23.8968 1.06978C24.0295 0.85275 24.0345 0.581062 23.9101 0.359203Z" fill="#FBBA00"/>
<path d="M23.9101 0.359203C23.7857 0.137391 23.5512 0 23.2969 0H12V22.9181L14.7655 23.9552C14.8456 23.9853 14.9292 24 15.0124 24C15.1537 24 15.2937 23.9575 15.413 23.8748C15.6025 23.7434 15.7156 23.5275 15.7156 23.2969V14.4572L23.8968 1.06978C24.0295 0.85275 24.0345 0.581062 23.9101 0.359203Z" fill="#E74111"/>
</g>
</g>
<defs>
<clipPath id="clip0_1415_301">
<rect width="24" height="24" fill="white"/>
</clipPath>
<clipPath id="clip1_1415_301">
<rect width="24" height="24" fill="white"/>
</clipPath>
</defs>
</svg>
