<svg width="10" height="16" viewBox="0 0 10 16" fill="none" xmlns="http://www.w3.org/2000/svg">
<path d="M2.87053 0.478254C2.72938 0.329626 2.55994 0.210728 2.37217 0.128557C2.18439 0.0463862 1.98208 0.00260148 1.77713 -0.000220513C1.57218 -0.0030425 1.36874 0.0351552 1.17878 0.112125C0.988812 0.189095 0.816159 0.303282 0.670979 0.447968C0.525756 0.591765 0.411143 0.76347 0.334044 0.95274C0.215893 1.23903 0.187135 1.55437 0.251552 1.8573C0.315968 2.16024 0.470543 2.43659 0.694957 2.65004L5.81335 7.75076C5.84977 7.78668 5.87853 7.82961 5.8979 7.87695C5.91786 7.92384 5.92814 7.97427 5.92814 8.02523C5.92814 8.07619 5.91786 8.12662 5.8979 8.17351C5.87906 8.22113 5.85023 8.26416 5.81335 8.2997L0.694957 13.408C0.473967 13.6428 0.33236 13.9412 0.290147 14.2608C0.247934 14.5805 0.30725 14.9054 0.459712 15.1895C0.612175 15.4737 0.850075 15.7027 1.13979 15.8443C1.42951 15.9859 1.75639 16.0328 2.07425 15.9785C2.3972 15.9043 2.68991 15.7336 2.91343 15.4889L9.29249 9.12248C9.52896 8.8975 9.68987 8.60476 9.7531 8.28456C9.80103 8.03943 9.7876 7.78626 9.71398 7.54759C9.64055 7.3098 9.51066 7.09332 9.3354 6.91662L2.87053 0.478254Z" fill="#E74111"/>
</svg>
