<svg width="118" height="98" viewBox="0 0 118 98" fill="none" xmlns="http://www.w3.org/2000/svg">
<path fill-rule="evenodd" clip-rule="evenodd" d="M59.0295 12.9355C57.6949 12.9355 56.3606 12.9575 55.3433 13.0013C49.6587 13.2459 44.0499 14.0571 38.5921 15.3982L53.4744 30.2832C54.0963 30.232 54.7192 30.1885 55.3438 30.1549C57.3771 30.0455 60.6818 30.0455 62.7152 30.1549C78.3241 30.995 93.1826 37.1495 104.814 47.5926C106.329 48.953 108.657 48.9615 110.097 47.5215L116.998 40.6205C118.438 39.1804 118.444 36.8391 116.943 35.4624C102.079 21.8245 82.8704 13.8686 62.7161 13.0013C61.6988 12.9575 60.364 12.9355 59.0295 12.9355V12.9355ZM15.5359 24.792C10.402 27.8166 5.56329 31.3824 1.11632 35.4624C-0.384202 36.8391 -0.379101 39.1804 1.06095 40.6205L7.96193 47.5215C9.40199 48.9615 11.7304 48.953 13.2456 47.5926C17.7736 43.5271 22.7929 40.1161 28.1531 37.4115L15.5359 24.792ZM72.0554 48.8683L90.4015 67.2175L92.7678 64.8511C94.2079 63.4111 94.2156 61.0647 92.6764 59.7318C86.6953 54.5523 79.63 50.8528 72.0554 48.8683V48.8683ZM41.1453 50.4064C35.4106 52.5347 30.0636 55.678 25.3825 59.7318C23.8433 61.0647 23.8515 63.4111 25.2916 64.8511L32.1921 71.7521C33.6322 73.1922 35.9564 73.1736 37.5419 71.897C42.6264 67.8035 48.7783 65.2467 55.2659 64.5297L41.1453 50.4064ZM59.0295 81.5258C57.6964 81.5258 56.3632 81.6342 55.3703 81.8513C53.385 82.2854 51.4923 83.0694 49.7815 84.1663C48.0704 85.2634 48.0822 87.6417 49.5222 89.0818L56.4223 95.9818C57.1138 96.6733 58.0517 97.0618 59.0297 97.0618C60.0076 97.0618 60.9456 96.6733 61.6371 95.9818L68.5372 89.0818C69.9772 87.6417 69.989 85.2634 68.2779 84.1663C66.5671 83.0694 64.6739 82.2854 62.6886 81.8513C61.6957 81.6342 60.3626 81.5258 59.0295 81.5258Z" fill="#E74111"/>
<path d="M14.7858 18.326C11.4954 15.0356 11.1935 10.0028 14.1115 7.08477C17.0295 4.16677 22.0624 4.46865 25.3528 7.75903L94.9231 77.3293C98.2135 80.6197 98.5153 85.6526 95.5973 88.5706C92.6793 91.4886 87.6465 91.1867 84.3561 87.8963L14.7858 18.326Z" fill="#FBBA00"/>
</svg>
