<svg width="48" height="48" viewBox="0 0 48 48" fill="none"
    xmlns="http://www.w3.org/2000/svg">
    <path fill-rule="evenodd" clip-rule="evenodd" d="M24 0C10.7625 0 0 10.7625 0 24C0 37.2375 10.7625 48 24 48C37.2375 48 48 37.2375 48 24C48 10.7625 37.2375 0 24 0Z" fill="#E74111"/>
    <path fill-rule="evenodd" clip-rule="evenodd" d="M35.6065 15.9094C36.1877 16.4906 36.1877 17.4469 35.6065 18.0282L21.544 32.0906C21.2533 32.3813 20.869 32.5313 20.4846 32.5313C20.1002 32.5313 19.7158 32.3813 19.4252 32.0906L12.3939 25.0594C11.8127 24.4781 11.8127 23.5219 12.3939 22.9406C12.9752 22.3594 13.9314 22.3594 14.5127 22.9406L20.4846 28.9125L33.4877 15.9094C34.069 15.3188 35.0252 15.3188 35.6065 15.9094Z" fill="white"/>
</svg>
