<svg width="24" height="22" viewBox="0 0 24 22" fill="none" xmlns="http://www.w3.org/2000/svg">
<path d="M20.25 8.70312C21.6739 8.70312 22.8281 7.54886 22.8281 6.125C22.8281 4.70114 21.6739 3.54688 20.25 3.54688C18.8261 3.54688 17.6719 4.70114 17.6719 6.125C17.6719 7.54886 18.8261 8.70312 20.25 8.70312Z" fill="#1D267D"/>
<path d="M20.25 8.70312V3.54688C21.6717 3.54688 22.8281 4.70328 22.8281 6.125C22.8281 7.54672 21.6717 8.70312 20.25 8.70312Z" fill="#1D267D"/>
<path d="M24 13.4605V18.5309C24 19.3152 23.3597 19.9531 22.5722 19.9531H17.6278C17.2397 19.9531 16.9247 19.6381 16.9247 19.25C16.9247 18.5664 16.5469 15.1029 16.5469 13.4605C16.5469 11.7162 17.9747 10.2969 19.7297 10.2969H20.8172C22.5722 10.2969 24 11.7162 24 13.4605Z" fill="#1D267D"/>
<path d="M24 13.4605V18.5309C24 19.3152 23.3597 19.9531 22.5722 19.9531H20.25V10.2969H20.8172C22.5722 10.2969 24 11.7162 24 13.4605Z" fill="#1D267D"/>
<path d="M3.75 8.70312C5.17386 8.70312 6.32812 7.54886 6.32812 6.125C6.32812 4.70114 5.17386 3.54688 3.75 3.54688C2.32614 3.54688 1.17188 4.70114 1.17188 6.125C1.17188 7.54886 2.32614 8.70312 3.75 8.70312Z" fill="#1D267D"/>
<path d="M3.75 8.70312V3.54688C5.17172 3.54688 6.32812 4.70328 6.32812 6.125C6.32812 7.54672 5.17172 8.70312 3.75 8.70312Z" fill="#1D267D"/>
<path d="M7.45312 13.4605C7.45312 15.1556 7.07531 18.5354 7.07531 19.25C7.07531 19.6381 6.76031 19.9531 6.37219 19.9531H1.37859C0.618281 19.9531 0 19.3372 0 18.5797V13.4605C0 11.7162 1.42781 10.2969 3.18281 10.2969H4.27031C6.02531 10.2969 7.45312 11.7162 7.45312 13.4605Z" fill="#1D267D"/>
<path d="M7.45312 13.4605C7.45312 15.1556 7.07531 18.5354 7.07531 19.25C7.07531 19.6381 6.76031 19.9531 6.37219 19.9531H3.75V10.2969H4.27031C6.02531 10.2969 7.45312 11.7162 7.45312 13.4605Z" fill="#1D267D"/>
<path d="M12 8.70312C14.2523 8.70312 16.0781 6.87729 16.0781 4.625C16.0781 2.37271 14.2523 0.546875 12 0.546875C9.74771 0.546875 7.92188 2.37271 7.92188 4.625C7.92188 6.87729 9.74771 8.70312 12 8.70312Z" fill="#1D267D"/>
<path d="M12 8.70312V0.546875C14.2486 0.546875 16.0781 2.37641 16.0781 4.625C16.0781 6.87359 14.2486 8.70312 12 8.70312Z" fill="#1D267D"/>
<path d="M18.3281 15.9697V19.8116C18.3281 20.7167 17.5917 21.4531 16.6866 21.4531H7.31344C6.40828 21.4531 5.67188 20.7167 5.67188 19.8116V15.9697C5.67188 12.8417 8.21672 10.2969 11.3447 10.2969H12.6553C15.7833 10.2969 18.3281 12.8417 18.3281 15.9697Z" fill="#1D267D"/>
<path d="M18.3281 15.9697V19.8116C18.3281 20.7167 17.5917 21.4531 16.6866 21.4531H12V10.2969H12.6553C15.7833 10.2969 18.3281 12.8417 18.3281 15.9697Z" fill="#1D267D"/>
</svg>
