<svg width="20" height="20" viewBox="0 0 20 20" fill="none"
    xmlns="http://www.w3.org/2000/svg">
    <path d="M14.1667 20.0383H2.5C1.12167 20.0383 0 18.9166 0 17.5383V5.87158C0 4.49326 1.12167 3.37158 2.5 3.37158H9.16672C9.62753 3.37158 10 3.74496 10 4.20502C10 4.66492 9.62753 5.0383 9.16672 5.0383H2.5C2.03995 5.0383 1.66672 5.41245 1.66672 5.87158V17.5383C1.66672 17.9974 2.03995 18.3716 2.5 18.3716H14.1667C14.6266 18.3716 15 17.9974 15 17.5383V10.8716C15 10.4117 15.3725 10.0383 15.8333 10.0383C16.2941 10.0383 16.6667 10.4117 16.6667 10.8716V17.5383C16.6667 18.9166 15.545 20.0383 14.1667 20.0383Z" fill="#1D267D"/>
    <path d="M14.4067 2.68604L7.8132 9.27936C7.75491 9.33765 7.71569 9.4118 7.69906 9.49176L7.10992 12.4385C7.08245 12.5751 7.12579 12.7159 7.22405 12.8151C7.30325 12.8943 7.40991 12.9367 7.51916 12.9367C7.54571 12.9367 7.57333 12.9343 7.60079 12.9285L10.5467 12.3394C10.6283 12.3226 10.7024 12.2835 10.76 12.2251L17.3533 5.63174L14.4067 2.68604Z" fill="#37D7BD"/>
    <path d="M19.3899 0.64846C18.5775 -0.16407 17.2558 -0.16407 16.444 0.64846L15.2908 1.80172L18.2366 4.74758L19.3899 3.59417C19.7833 3.20171 19.9999 2.67834 19.9999 2.1217C19.9999 1.56506 19.7833 1.04168 19.3899 0.64846Z" fill="#37D7BD"/>
</svg>
