<svg width="16" height="24" viewBox="0 0 16 24" fill="none"
    xmlns="http://www.w3.org/2000/svg">
    <path d="M11.5303 0L8.00293 3.52734V4.80281H9.41527V12.7031H13.6457V4.80281H15.0576V3.52734L11.5303 0Z" fill="#1D267D"/>
    <path d="M15.0576 3.52734V4.80281H13.6457V12.7031H11.5303V0L15.0576 3.52734Z" fill="#1D267D"/>
    <path d="M4.46997 2.24954L0.942627 5.77689V7.05282H2.3545V12.7031H6.58497V7.05282H7.99731V5.77689L4.46997 2.24954Z" fill="#1D267D"/>
    <path d="M7.99731 5.77689V7.05282H6.58497V12.7031H4.46997V2.24954L7.99731 5.77689Z" fill="#1D267D"/>
    <path d="M8.00007 24C12.1963 24 15.598 20.5983 15.598 16.402C15.598 12.2058 12.1963 8.80408 8.00007 8.80408C3.80383 8.80408 0.4021 12.2058 0.4021 16.402C0.4021 20.5983 3.80383 24 8.00007 24Z" fill="#1D267D"/>
    <path d="M15.598 16.402C15.598 20.5983 12.1962 24 8 24V8.80408C12.1962 8.80408 15.598 12.2058 15.598 16.402Z" fill="#1D267D"/>
    <path d="M10.4141 17.7469C10.4141 18.7622 9.67108 19.6069 8.7003 19.7667V20.6386H7.29405V19.7691C6.32983 19.6148 5.59062 18.7777 5.59062 17.7703H6.99687C6.99687 18.1111 7.2739 18.3881 7.61468 18.3881H8.36655C8.71999 18.3881 9.0078 18.1003 9.0078 17.7469C9.0078 17.393 8.71999 17.1052 8.36655 17.1052H7.6278C6.49858 17.1052 5.57983 16.1864 5.57983 15.0572C5.57983 14.0419 6.32327 13.1972 7.29405 13.0373V12.1655H8.7003V13.0402C9.66312 13.207 10.3981 14.0484 10.3981 15.0581H8.99187C8.99187 14.7042 8.70358 14.4159 8.34968 14.4159H7.6278C7.2739 14.4159 6.98608 14.7037 6.98608 15.0572C6.98608 15.4111 7.2739 15.6989 7.6278 15.6989H8.36655C9.4953 15.6989 10.4141 16.6177 10.4141 17.7469Z" fill="white"/>
    <path d="M10.4141 17.7469C10.4141 18.7622 9.67109 19.6069 8.70031 19.7667V20.6386H8V18.3881H8.36656C8.72 18.3881 9.00781 18.1003 9.00781 17.7469C9.00781 17.393 8.72 17.1052 8.36656 17.1052H8V15.6989H8.36656C9.49531 15.6989 10.4141 16.6177 10.4141 17.7469Z" fill="white"/>
    <path d="M8.34969 14.4159H8V12.1655H8.70031V13.0402C9.66312 13.207 10.3981 14.0484 10.3981 15.0581H8.99187C8.99187 14.7042 8.70359 14.4159 8.34969 14.4159Z" fill="white"/>
</svg>
