<svg width="24" height="24" viewBox="0 0 24 24" fill="none"
    xmlns="http://www.w3.org/2000/svg">
    <path d="M5.37124 22.7618H1.21118V17.4278C1.21118 17.2946 1.31918 17.1866 1.45235 17.1866H5.13003C5.26324 17.1866 5.3712 17.2946 5.3712 17.4278V22.7618H5.37124Z" fill="#1D267D"/>
    <path d="M5.37122 17.428V22.3528H4.19283V17.428C4.19283 17.2944 4.08479 17.1868 3.95166 17.1868H5.13005C5.26318 17.1868 5.37122 17.2944 5.37122 17.428Z" fill="#1D267D"/>
    <path d="M16.9831 22.7618H12.823V10.3131C12.823 10.1799 12.931 10.072 13.0642 10.072H16.7419C16.8751 10.072 16.983 10.18 16.983 10.3131V22.7618H16.9831Z" fill="#1D267D"/>
    <path d="M16.9828 10.3133V22.3529H15.8044V10.3133C15.8044 10.1797 15.6964 10.0721 15.5632 10.0721H16.7416C16.8748 10.0721 16.9828 10.1797 16.9828 10.3133Z" fill="#1D267D"/>
    <path d="M22.7888 22.7618H18.6287V5.8594C18.6287 5.72618 18.7367 5.61823 18.8698 5.61823H22.5475C22.6808 5.61823 22.7887 5.72623 22.7887 5.8594V22.7618H22.7888Z" fill="#1D267D"/>
    <path d="M22.7887 5.85958V22.3529H21.6103V5.85958C21.6103 5.72594 21.5023 5.61841 21.3691 5.61841H22.5475C22.6807 5.61836 22.7887 5.72594 22.7887 5.85958Z" fill="#1D267D"/>
    <path d="M11.1772 22.7618H7.01709V12.9793C7.01709 12.8461 7.12509 12.7381 7.25826 12.7381H10.9359C11.0692 12.7381 11.1771 12.8461 11.1771 12.9793V22.7618H11.1772Z" fill="#1D267D"/>
    <path d="M11.1771 12.9795V22.3528H9.99874V12.9795C9.99874 12.8458 9.89069 12.7383 9.75757 12.7383H10.936C11.0691 12.7382 11.1771 12.8458 11.1771 12.9795Z" fill="#1D267D"/>
    <path d="M17.7934 0.0241609L15.1535 0.490053C14.7121 0.56796 14.3998 0.995087 14.4594 1.43932C14.5241 1.92087 14.9684 2.24576 15.4469 2.16134L15.9022 2.081L13.8238 5.35823C13.6593 5.61754 13.3157 5.69446 13.0564 5.52998L9.46521 3.65525C9.01731 3.37119 8.42392 3.50394 8.13976 3.95174L4.88845 8.8239C4.61428 9.2559 4.74234 9.82839 5.17444 10.1024C5.60644 10.3764 6.17874 10.2483 6.45273 9.81629L8.92666 6.16608C9.09114 5.90676 9.43469 5.82984 9.694 5.99433L13.2872 7.87032C13.7352 8.15443 14.3287 8.02158 14.6128 7.5736L17.4697 3.06889L17.5721 3.64897C17.6535 4.11036 18.0936 4.41843 18.555 4.33696C19.0164 4.25554 19.3245 3.81543 19.2429 3.35399L18.7763 0.712054C18.6948 0.250709 18.2548 -0.0572613 17.7934 0.0241609Z" fill="#1D267D"/>
    <path d="M19.2431 3.35385L18.7766 0.712154C18.695 0.250902 18.2547 -0.0573021 17.7934 0.024167L17.7511 0.0314796C17.8321 0.353278 17.9324 0.670857 17.9695 1.00269C18.0072 1.33864 18.2164 1.94216 17.8384 2.16041C17.607 2.29401 17.3406 2.14752 17.1006 2.29841C16.8895 2.43112 16.7757 2.62733 16.6447 2.83359C16.3219 3.34185 16.0001 3.84961 15.6783 4.35736C15.2144 5.0887 14.7779 5.83815 14.2867 6.55191C13.9407 7.0546 13.6534 7.10687 12.9608 6.72376L9.36734 4.84786C9.10821 4.68333 8.76453 4.76011 8.59995 5.01919L6.1263 8.79447C5.85203 9.22647 5.28006 9.35449 4.84801 9.08074C4.8271 9.06714 4.80676 9.05355 4.7874 9.03841C4.66257 9.43019 4.81088 9.87162 5.17449 10.1025C5.32862 10.2002 5.49995 10.2467 5.66973 10.2467C5.97639 10.2467 6.2762 10.0942 6.45278 9.81626L8.92643 6.16585C9.09101 5.90672 9.4347 5.82994 9.69383 5.99452L13.2873 7.87042C13.735 8.15462 14.3285 8.02141 14.6126 7.5737L17.4695 3.06866L17.5719 3.64903C17.6534 4.11028 18.0933 4.41848 18.555 4.33701C18.9667 4.2644 19.256 3.90604 19.256 3.50226C19.2561 3.45313 19.252 3.40349 19.2431 3.35385Z" fill="#1D267D"/>
    <path d="M23.7588 23.989H0.241173C0.107954 23.989 0 23.881 0 23.7478V22.5941C0 22.4609 0.108 22.353 0.241173 22.353H23.7588C23.892 22.353 23.9999 22.461 23.9999 22.5941V23.7478C24 23.881 23.892 23.989 23.7588 23.989Z" fill="#1D267D"/>
</svg>
