<svg width="201" height="80" viewBox="0 0 201 80" fill="none"
    xmlns="http://www.w3.org/2000/svg">
    <path d="M48.4602 59.7236C48.4602 66.0751 48.4429 72.4265 48.4774 78.7599C48.4774 79.4832 48.319 79.7303 47.5596 79.713C44.8251 79.6777 42.0907 79.695 39.3553 79.695C38.156 79.695 38.156 79.695 38.156 78.5128C38.156 66.41 38.1207 54.3072 38.1732 42.1863C38.2031 40.332 37.8526 38.4912 37.1434 36.7775C36.4342 35.0639 35.3813 33.5138 34.0497 32.2229C29.3919 27.4065 21.0644 27.23 16.0191 31.2698C10.1085 35.9802 9.27933 44.6253 13.4077 50.059C14.6587 51.8373 16.3254 53.2829 18.2626 54.2701C20.1998 55.2573 22.349 55.7562 24.523 55.7233C26.728 55.7233 28.9338 55.7414 31.1388 55.7061C31.7389 55.7061 31.9507 55.8645 31.9507 56.4999C31.9154 59.4462 31.9154 62.3752 31.9507 65.3215C31.9507 65.8682 31.8275 66.08 31.2274 66.08C28.722 66.0447 26.2346 66.1678 23.7292 66.0447C18.6411 65.925 13.7326 64.1399 9.75629 60.9632C5.50164 57.7 2.48946 53.0812 1.21873 47.872C0.254345 44.0618 0.260557 40.0706 1.23679 36.2634C3.60104 27.4065 9.2112 21.4614 17.9835 18.9913C25.8168 16.7863 33.2444 18.1268 39.6665 23.4546C42.9753 26.0801 45.5165 29.5477 47.0236 33.4936C47.9655 35.9871 48.4612 38.627 48.4881 41.2923C48.4881 47.4492 48.4708 53.5897 48.4708 59.7294L48.4602 59.7236Z" fill="#E44111"/>
    <path d="M92.9548 53.1111C92.9548 49.2651 92.972 45.4191 92.9548 41.5551C92.935 38.2721 91.6452 35.1243 89.3559 32.7712C87.2464 30.3725 84.3241 28.8391 81.1516 28.4663C79.409 28.207 77.6323 28.2959 75.9243 28.728C74.2163 29.16 72.611 29.9266 71.2013 30.9833C68.6709 32.818 66.8562 35.4745 66.0672 38.4988C65.4857 40.5482 65.4081 42.7079 65.8412 44.7938C66.2743 46.8797 67.2052 48.8299 68.5546 50.4785C70.2216 52.6888 72.5515 54.3085 75.2041 55.101C78.5631 56.1633 82.2021 55.8917 85.3662 54.3425C86.0369 54.0248 86.1781 54.0782 86.1601 54.8351C86.125 58.0093 86.125 61.1849 86.1601 64.3618C86.1803 64.4743 86.176 64.5898 86.1476 64.7005C86.1191 64.8112 86.0671 64.9145 85.9951 65.0032C85.9231 65.092 85.8328 65.1641 85.7304 65.2148C85.6279 65.2655 85.5158 65.2935 85.4015 65.2969C83.1739 65.8067 80.8944 66.0546 78.6092 66.0357C73.0991 65.9134 67.8086 63.8519 63.6685 60.2137C60.7491 57.7549 58.474 54.6207 57.0408 51.0831C55.6076 47.5455 55.0597 43.7115 55.4445 39.914C55.7463 35.3056 57.4588 30.9015 60.3495 27.2998C64.019 22.7306 68.6244 19.5897 74.4636 18.516C80.2856 17.4397 85.9138 18.0571 91.0831 21.0739C93.8617 22.6101 96.3038 24.6882 98.2645 27.1854C100.225 29.6826 101.665 32.5479 102.498 35.6116C103.034 37.5602 103.307 39.5718 103.31 41.5928C103.31 49.4088 103.293 57.2248 103.327 65.0399C103.327 65.7984 103.204 66.0808 102.357 66.0636C99.5336 65.993 96.7113 66.0111 93.8882 66.0636C93.1822 66.0808 92.9351 65.9224 92.9532 65.1606C92.9704 61.1553 92.9532 57.1328 92.9532 53.1103L92.9548 53.1111Z" fill="#E74111"/>
    <path d="M164.956 54.152C165.089 54.3939 165.133 54.675 165.079 54.9458C165.079 58.0653 165.044 61.1742 165.079 64.2969C165.096 65.0735 164.815 65.282 164.109 65.4085C162.023 65.8642 159.892 66.0845 157.757 66.0652C152.37 65.9691 147.18 64.0188 143.063 60.5429C140.543 58.4398 138.452 55.8698 136.906 52.974C135.667 50.6112 134.877 48.0389 134.577 45.3879C133.951 40.9328 134.587 36.3914 136.412 32.2794C138.594 27.4314 142.306 23.4324 146.978 20.8949C150.984 18.6969 155.551 17.7332 160.104 18.1252C165.227 18.4118 170.105 20.4126 173.954 23.8059C176.642 26.04 178.795 28.8482 180.254 32.0239C181.714 35.1996 182.443 38.6621 182.388 42.1568C182.388 49.8488 182.371 57.5588 182.388 65.2508C182.388 65.9076 182.247 66.098 181.576 66.08C178.718 66.0447 175.878 66.0447 173.02 66.08C172.297 66.0972 172.102 65.9388 172.102 65.177C172.137 57.3963 172.155 49.5984 172.102 41.8177C172.088 39.1487 171.281 36.5442 169.782 34.3355C168.283 32.1268 166.162 30.4138 163.687 29.4144C158.906 27.5091 154.265 27.968 150.102 31.1614C148.533 32.3177 147.239 33.8059 146.312 35.5198C145.385 37.2337 144.848 39.131 144.738 41.0764C144.499 44.2857 145.399 47.4766 147.281 50.0875C149.162 52.6983 151.904 54.5618 155.025 55.3497C158.271 56.1733 161.706 55.7909 164.693 54.2735C164.777 54.2263 164.865 54.1857 164.956 54.152V54.152Z" fill="#E74111"/>
    <path d="M195.281 42.0846C193.834 42.0846 192.408 42.0493 190.959 42.1018C190.377 42.119 190.147 41.89 190.129 41.363C190.112 40.8868 190.112 40.4279 190.094 39.9518C189.97 37.45 189.513 34.9759 188.736 32.5947C187.848 29.6596 186.522 26.8758 184.801 24.3379C180.485 17.9445 173.999 13.3311 166.544 11.3518C164.09 10.7002 161.567 10.3449 159.028 10.2936C158.552 10.2936 158.34 10.0999 158.34 9.60571C158.357 6.64137 158.357 3.6598 158.34 0.696277C158.34 0.114245 158.623 0.114243 159.046 0.0961828C161.386 0.0902761 163.72 0.314927 166.015 0.766875C169.246 1.35042 172.397 2.31488 175.401 3.64009C178.792 5.12795 181.963 7.07507 184.823 9.42675C188.447 12.3571 191.559 15.8689 194.033 19.8188C195.762 22.6243 197.176 25.6122 198.249 28.7282C199.252 31.7388 199.926 34.849 200.26 38.0046C200.384 39.0808 200.384 40.1743 200.489 41.2505C200.56 41.9737 200.278 42.1535 199.586 42.133C198.159 42.0493 196.712 42.0846 195.281 42.0846Z" fill="#FAB903"/>
    <path d="M110.104 53.094C110.104 49.248 110.033 45.402 110.121 41.5379C110.144 35.5033 112.546 29.7213 116.807 25.4479C119.703 22.3639 123.379 20.1204 127.446 18.9553C129.393 18.4313 131.394 18.1351 133.409 18.0728C134.026 18.0547 134.132 18.2846 134.132 18.8313C134.115 21.7776 134.115 24.7066 134.132 27.6529C134.132 28.1996 134.009 28.4295 133.409 28.4295C130.31 28.4704 127.339 29.6713 125.082 31.7953C123.549 33.1178 122.336 34.7696 121.533 36.6272C120.729 38.4848 120.356 40.5001 120.442 42.5222C120.512 50.0205 120.442 57.5007 120.477 64.999C120.477 65.8109 120.336 66.1105 119.436 66.0752C116.613 66.0046 113.791 66.0227 110.967 66.058C110.311 66.058 110.12 65.8995 110.12 65.2288C110.156 61.171 110.137 57.1132 110.137 53.0554C110.119 53.094 110.104 53.094 110.104 53.094Z" fill="#E74111"/>
</svg>
