<svg width="24" height="18" viewBox="0 0 24 18" fill="none"
    xmlns="http://www.w3.org/2000/svg">
    <path d="M15.0763 17.9238C12.1073 17.9238 9.34137 16.4532 7.67731 13.9902C7.34 13.4909 7.47134 12.8128 7.97056 12.4755C8.46997 12.1383 9.14792 12.2695 9.48523 12.7688C10.743 14.6305 12.8331 15.742 15.0763 15.742C18.7938 15.742 21.8182 12.7176 21.8182 9.00011C21.8182 5.28259 18.7938 2.25821 15.0763 2.25821C12.8264 2.25821 10.7329 3.37473 9.47614 5.2449C9.13991 5.74506 8.46223 5.8779 7.96217 5.54186C7.46215 5.20576 7.32922 4.52795 7.66522 4.02789C9.32811 1.55364 12.0986 0.076416 15.0763 0.076416C19.9968 0.076416 24 4.07954 24 9.00011C24 13.9206 19.9968 17.9238 15.0763 17.9238Z" fill="#1D267D"/>
    <path d="M16.3635 7.90911H3.72459L5.13506 6.49869C5.56111 6.07264 5.56111 5.38194 5.13506 4.95594C4.70911 4.52999 4.01831 4.52999 3.59231 4.95594L0.319547 8.22861C0.317953 8.23021 0.316641 8.23194 0.315047 8.23353C0.291703 8.25716 0.26925 8.28177 0.248062 8.3075C0.2415 8.31542 0.235969 8.32396 0.229734 8.33202C0.214078 8.35208 0.198469 8.37224 0.184266 8.39338C0.179625 8.4005 0.175594 8.40805 0.170953 8.41527C0.156422 8.43819 0.142078 8.46116 0.129141 8.48516C0.126281 8.49041 0.124172 8.49599 0.121359 8.50128C0.107813 8.52763 0.0947344 8.55425 0.0833906 8.58172C0.0818437 8.58542 0.0807187 8.58936 0.0790781 8.59316C0.0674531 8.62227 0.0564375 8.6518 0.0472969 8.68213C0.0460781 8.68621 0.0453281 8.69033 0.0441562 8.69441C0.0354375 8.72431 0.0275156 8.75441 0.0213281 8.7853C0.0195 8.79463 0.0186563 8.80414 0.0170156 8.81352C0.0125156 8.83921 0.00801563 8.86485 0.00539062 8.8911C0.001875 8.92714 0 8.96352 0 9.00003C0 9.03655 0.001875 9.07292 0.0054375 9.10897C0.00810937 9.1356 0.0127031 9.16156 0.0172031 9.18753C0.0187969 9.19653 0.0194531 9.20577 0.0213281 9.21472C0.0275625 9.24608 0.0356719 9.27669 0.0444375 9.30702C0.0455156 9.31058 0.046125 9.31438 0.0472969 9.31794C0.0566719 9.34869 0.0677344 9.37874 0.0796406 9.40841C0.0809531 9.4116 0.0818906 9.41502 0.0832031 9.4182C0.0949219 9.44633 0.108234 9.47357 0.122109 9.50038C0.1245 9.50511 0.126563 9.51003 0.129 9.51477C0.142359 9.53956 0.157219 9.56342 0.172266 9.58705C0.176391 9.59347 0.179906 9.60022 0.184031 9.60646C0.199078 9.62891 0.215578 9.65033 0.232266 9.67156C0.237562 9.67841 0.242297 9.68558 0.247828 9.69228C0.270469 9.71985 0.294469 9.74633 0.319547 9.77155L3.59213 13.0441C3.80513 13.2571 4.08436 13.3636 4.36355 13.3636C4.64273 13.3636 4.92197 13.2571 5.13487 13.0441C5.56092 12.618 5.56092 11.9273 5.13487 11.5013L3.72445 10.0909H16.3634C16.9658 10.0909 17.4543 9.60247 17.4543 8.99999C17.4543 8.3975 16.966 7.90911 16.3635 7.90911Z" fill="#37D7BD"/>
</svg>
