<svg width="24" height="24" viewBox="0 0 24 24" fill="none" xmlns="http://www.w3.org/2000/svg">
<path d="M4.8564 16.8C4.29509 15.827 3.99973 14.7235 4 13.6002C4.00027 12.477 4.29617 11.3736 4.85796 10.4009C5.41974 9.42822 6.22763 8.62053 7.20045 8.05897C8.17326 7.49742 9.27674 7.2018 10.4 7.2018C11.5233 7.2018 12.6267 7.49742 13.5996 8.05897C14.5724 8.62053 15.3803 9.42822 15.942 10.4009C16.5038 11.3736 16.7997 12.477 16.8 13.6002C16.8003 14.7235 16.5049 15.827 15.9436 16.8H23.2C23.4122 16.8 23.6157 16.7157 23.7657 16.5657C23.9157 16.4157 24 16.2122 24 16V0.8C24 0.587827 23.9157 0.384344 23.7657 0.234315C23.6157 0.0842854 23.4122 0 23.2 0H0.799999C0.587826 0 0.384342 0.0842854 0.234314 0.234315C0.0842838 0.384344 0 0.587827 0 0.8V16C0 16.2122 0.0842838 16.4157 0.234314 16.5657C0.384342 16.7157 0.587826 16.8 0.799999 16.8H4.8564Z" fill="#A7A7A7"/>
<path d="M14 22H16V21.2H14.1656L11.8828 18.9172L11.3172 19.4828L13.7172 21.8828C13.7922 21.9578 13.8939 22 14 22Z" fill="#DBDBDB"/>
<path d="M3.59999 18.8L5.14518 17.2548C5.5799 17.8784 6.1216 18.4201 6.74518 18.8548L5.19998 20.4L3.59999 18.8Z" fill="#707070" fill-opacity="0.8"/>
<path d="M16.212 15.6H22.4C22.5061 15.6 22.6078 15.5579 22.6828 15.4828C22.7578 15.4078 22.8 15.3061 22.8 15.2V4H22V14.8H16.212V15.6Z" fill="#DBDBDB"/>
<path d="M20.5052 13.8704L21.0948 13.3296L16.6948 8.52962C16.6573 8.48877 16.6118 8.45616 16.561 8.43385C16.5103 8.41154 16.4554 8.40002 16.4 8.40002H16.3968C16.3408 8.40041 16.2856 8.41253 16.2346 8.43562C16.1836 8.4587 16.138 8.49222 16.1008 8.53402L15.0344 9.73402L15.6344 10.266L16.4064 9.39682L20.5052 13.8704Z" fill="#DBDBDB"/>
<path d="M3.20001 18.4L5.60001 20.8L2.89721 23.5028C2.57896 23.8211 2.14731 24 1.69721 24C1.47432 24.0001 1.25359 23.9562 1.04766 23.8709C0.84172 23.7857 0.654603 23.6606 0.496993 23.503C0.339383 23.3454 0.21437 23.1583 0.129096 22.9524C0.0438223 22.7464 -4.1008e-05 22.5257 1.14441e-05 22.3028C6.53267e-05 21.8527 0.178912 21.4211 0.497211 21.1028L3.20001 18.4Z" fill="#707070"/>
<path d="M5.19999 4H7.2V4.8H6.1656L8.9024 7.5368L8.3368 8.10241L5.6 5.3656V6.4H4.79999V4.4C4.79999 4.29391 4.84214 4.19217 4.91715 4.11716C4.99217 4.04214 5.09391 4 5.19999 4Z" fill="#DBDBDB"/>
<path d="M15.2 1.59998H20C20.4418 1.59998 20.8 1.95815 20.8 2.39998V5.59997C20.8 6.0418 20.4418 6.39997 20 6.39997H15.2C14.7582 6.39997 14.4 6.0418 14.4 5.59997V2.39998C14.4 1.95815 14.7582 1.59998 15.2 1.59998Z" fill="#DBDBDB"/>
<path d="M19.6 2.79999H15.6V3.59999H19.6V2.79999Z" fill="white"/>
<path d="M19.6 4.40002H15.6V5.20003H19.6V4.40002Z" fill="white"/>
<path d="M16.8 19.2H21.6C22.0418 19.2 22.4 19.5582 22.4 20V23.2C22.4 23.6418 22.0418 24 21.6 24H16.8C16.3582 24 16 23.6418 16 23.2V20C16 19.5582 16.3582 19.2 16.8 19.2Z" fill="#DBDBDB"/>
<path d="M21.2 20.4H17.2V21.2H21.2V20.4Z" fill="white"/>
<path d="M21.2 22H17.2V22.8H21.2V22Z" fill="white"/>
<path d="M10.5272 7.75078L12.6216 4.39998H14.4V3.59998H12.4C12.3322 3.59998 12.2654 3.61723 12.2061 3.65012C12.1468 3.68301 12.0968 3.73045 12.0608 3.78798L9.84881 7.32718L10.5272 7.75078Z" fill="#DBDBDB"/>
<path d="M10.4 20C6.86537 20 3.99999 17.1346 3.99999 13.6C3.99999 10.0654 6.86537 7.20001 10.4 7.20001C13.9346 7.20001 16.8 10.0654 16.8 13.6C16.8 17.1346 13.9346 20 10.4 20Z" fill="#707070"/>
<path d="M10.4 18.4C7.74904 18.4 5.6 16.251 5.6 13.6C5.6 10.949 7.74904 8.79999 10.4 8.79999C13.051 8.79999 15.2 10.949 15.2 13.6C15.2 16.251 13.051 18.4 10.4 18.4Z" fill="white"/>
<path d="M14.76 15.6H9.59999V14.8H15.0428C14.9725 15.0745 14.8779 15.3423 14.76 15.6Z" fill="#DBDBDB"/>
<path d="M10.1768 8.81122L13.1828 11.8172L14.2 10.674C14.3699 10.8931 14.5206 11.1265 14.6504 11.3716L13.5 12.666C13.4637 12.7068 13.4195 12.7397 13.37 12.7628C13.3206 12.7858 13.2669 12.7985 13.2124 12.8H13.2C13.0939 12.8 12.9922 12.7578 12.9172 12.6828L9.19357 8.96002C9.51521 8.87627 9.84474 8.8264 10.1768 8.81122Z" fill="#DBDBDB"/>
</svg>
