<svg width="20" height="20" viewBox="0 0 20 20" fill="none" xmlns="http://www.w3.org/2000/svg">
<path d="M7.64706 8.82373V10.0002L8.82353 10.3662L10 10.0002L10.3922 9.47079L10 8.82373H7.64706Z" fill="#1D267D"/>
<path d="M12.3529 8.82373H10V10.0002L11.1765 10.2992L12.3529 10.0002V8.82373Z" fill="#1D267D"/>
<path d="M7.64706 10V11.7647L8.80392 12.1569L10 11.7647L10.3922 10.9935L10 10H7.64706Z" fill="#1D267D"/>
<path d="M12.3529 10H10V11.7647L11.2549 12.1569L12.3529 11.7647V10Z" fill="#1D267D"/>
<path d="M9.41177 1.17634V3.04191L9.78561 3.36983L10 2.94104L10.3922 2.11261L10 1.17634L9.70588 0.78418L9.41177 1.17634Z" fill="#1D267D"/>
<path d="M10.5882 1.17634L10.2941 0.78418L10 1.17634V2.94104L10.2941 3.38881L10.5882 3.05222V1.17634Z" fill="#1D267D"/>
<path d="M6.47058 10.0002L4.11764 10.3924L1.7647 10.0002V8.82373H6.47058V10.0002Z" fill="#1D267D"/>
<path d="M6.47058 11.7647L1.7647 12.5049V10H6.47058V11.7647Z" fill="#1D267D"/>
<path d="M18.2353 10.0002L15.8824 10.3924L13.5294 10.0002V8.82373H18.2353V10.0002Z" fill="#1D267D"/>
<path d="M18.2353 12.5049L13.5294 11.7647V10H18.2353V12.5049Z" fill="#1D267D"/>
<path d="M12.9714 7.24495L12.4762 5.75922L11.5929 5.46483L11.3407 4.77569L11.7083 4.26318L13.4062 4.82918L14.0875 6.87287L12.9714 7.24495Z" fill="#1D267D"/>
<path d="M7.02863 7.24491L5.91255 6.87283L6.59381 4.82914L8.29157 4.26318L8.56863 4.85056L8.40698 5.46483L7.52385 5.75918L7.02863 7.24491Z" fill="#1D267D"/>
<path d="M8.23529 4.70611C8.23529 5.67917 9.02698 6.47082 10 6.47082L10.3922 4.70611L10 2.94141C9.02698 2.94141 8.23529 3.73305 8.23529 4.70611Z" fill="#1D267D"/>
<path d="M11.7647 4.70611C11.7647 3.73305 10.9731 2.94141 10 2.94141V6.47082C10.9731 6.47082 11.7647 5.67917 11.7647 4.70611Z" fill="#1D267D"/>
<path d="M9.41177 4.70591C9.41177 5.03026 9.67565 5.29415 10 5.29415L10.3922 4.70591L10 4.11768C9.67565 4.11768 9.41177 4.38156 9.41177 4.70591Z" fill="#F9D2C6"/>
<path d="M10 4.11768V5.29415C10.3244 5.29415 10.5882 5.03026 10.5882 4.70591C10.5882 4.38156 10.3244 4.11768 10 4.11768Z" fill="#F9D2C6"/>
<path d="M4.70588 0V1.17647H10L10.3922 0.588235L10 0H4.70588Z" fill="#1D267D"/>
<path d="M10 0H15.2941V1.17647H10V0Z" fill="#1D267D"/>
<path d="M4.11765 11.7646C1.84722 11.7646 0 13.6118 0 15.8823C0 18.1528 1.84722 19.9999 4.11765 19.9999H10L10.3922 15.8823L10 11.7646H4.11765Z" fill="#1D267D"/>
<path d="M15.8824 11.7646H10V19.9999H15.8824C18.1528 19.9999 20 18.1528 20 15.8823C20 13.6118 18.1528 11.7646 15.8824 11.7646Z" fill="#1D267D"/>
<path d="M4.11764 12.9414C2.49588 12.9414 1.17647 14.2608 1.17647 15.8826C1.17647 17.5043 2.49588 18.8238 4.11764 18.8238H10L10.3922 15.8826L10 12.9414H4.11764Z" fill="#FDF0EC"/>
<path d="M15.8824 12.9414H10V18.8238H15.8824C17.5041 18.8238 18.8235 17.5043 18.8235 15.8826C18.8235 14.2608 17.5041 12.9414 15.8824 12.9414Z" fill="#FDF0EC"/>
<path d="M4.70588 17.6471C5.6805 17.6471 6.47059 16.857 6.47059 15.8824C6.47059 14.9078 5.6805 14.1177 4.70588 14.1177C3.73126 14.1177 2.94118 14.9078 2.94118 15.8824C2.94118 16.857 3.73126 17.6471 4.70588 17.6471Z" fill="#1D267D"/>
<path d="M4.70588 16.4704C5.03075 16.4704 5.29412 16.2071 5.29412 15.8822C5.29412 15.5573 5.03075 15.2939 4.70588 15.2939C4.38101 15.2939 4.11765 15.5573 4.11765 15.8822C4.11765 16.2071 4.38101 16.4704 4.70588 16.4704Z" fill="#F9D2C6"/>
<path d="M15.2941 17.6471C16.2687 17.6471 17.0588 16.857 17.0588 15.8824C17.0588 14.9078 16.2687 14.1177 15.2941 14.1177C14.3195 14.1177 13.5294 14.9078 13.5294 15.8824C13.5294 16.857 14.3195 17.6471 15.2941 17.6471Z" fill="#1D267D"/>
<path d="M15.2941 16.4704C15.619 16.4704 15.8823 16.2071 15.8823 15.8822C15.8823 15.5573 15.619 15.2939 15.2941 15.2939C14.9692 15.2939 14.7059 15.5573 14.7059 15.8822C14.7059 16.2071 14.9692 16.4704 15.2941 16.4704Z" fill="#F9D2C6"/>
<path d="M8.23529 15.8824C8.23529 16.8555 9.0269 17.6471 10 17.6471L10.3922 15.8824L10 14.1177C9.0269 14.1177 8.23529 14.9093 8.23529 15.8824Z" fill="#1D267D"/>
<path d="M10 14.1177V17.6471C10.9731 17.6471 11.7647 16.8555 11.7647 15.8824C11.7647 14.9093 10.9731 14.1177 10 14.1177Z" fill="#1D267D"/>
<path d="M9.41177 15.8822C9.41177 16.2066 9.67565 16.4704 10 16.4704L10.3922 15.8822L10 15.2939C9.67565 15.2939 9.41177 15.5578 9.41177 15.8822Z" fill="#F9D2C6"/>
<path d="M10 15.2939V16.4704C10.3244 16.4704 10.5882 16.2066 10.5882 15.8822C10.5882 15.5578 10.3244 15.2939 10 15.2939Z" fill="#F9D2C6"/>
</svg>
