<svg width="48" height="48" viewBox="0 0 48 48" fill="none"
    xmlns="http://www.w3.org/2000/svg">
    <g clip-path="url(#clip0_2984_5905)">
        <path d="M11 15.664V11C11 7.692 13.692 5 17 5C20.308 5 23 7.692 23 11V15C23.208 15 23.404 15.048 23.608 15.068C25.08 13.466 26 11.348 26 9C26 4.03 21.97 0 17 0C12.03 0 8 4.03 8 9C8 11.656 9.172 14.016 11 15.664Z" fill="#E74111"/>
        <path d="M38 22C36.344 22 35 23.344 35 25V25.5C35 25.776 34.776 26 34.5 26C34.224 26 34 25.776 34 25.5V23C34 21.344 32.656 20 31 20C29.344 20 28 21.344 28 23V25.5C28 25.776 27.776 26 27.5 26C27.224 26 27 25.776 27 25.5V21C27 19.344 25.656 18 24 18C22.344 18 21 19.344 21 21V25.5C21 25.776 20.776 26 20.5 26C20.224 26 20 25.776 20 25.5V11C20 9.344 18.656 8 17 8C15.344 8 14 9.344 14 11V29C13.448 29 13 28.552 13 28V24H12.012C8.722 24 5.998 26.656 6 29.946C6.01 40.508 13.698 48 18.426 48H31C36.522 48 41 43.522 41 38V25C41 23.344 39.656 22 38 22Z" fill="#E74111"/>
    </g>
    <!-- <defs>
        <clipPath id="clip0_2984_5905">
            <rect width="48" height="48" fill="white"/>
        </clipPath>
    </defs> -->
</svg>
