<svg width="48" height="46" viewBox="0 0 48 46" fill="none" xmlns="http://www.w3.org/2000/svg">
<path d="M47.1169 34.8828L30.1594 4.31089C28.8937 2.06089 26.5874 0.682861 24 0.682861C21.4126 0.682861 19.1062 2.06099 17.8406 4.31089L0.883118 34.8828C-0.326257 37.0766 -0.298039 39.6922 0.995712 41.8577C2.26124 44.0234 4.53937 45.3172 7.04249 45.3172H40.9575C43.4606 45.3172 45.7388 44.0234 47.0043 41.8578C48.2981 39.6922 48.3263 37.0766 47.1169 34.8828Z" fill="#1D267D"/>
<path d="M24 31.2548C21.6655 31.2548 19.7812 33.139 19.7812 35.4735C19.7812 37.8078 21.6655 39.6923 24 39.6923C26.3345 39.6923 28.2187 37.8078 28.2187 35.4735C28.2187 33.139 26.3345 31.2548 24 31.2548Z" fill="white"/>
<path d="M24 8.75476C21.6655 8.75476 19.7812 10.639 19.7812 12.9735V24.2235C19.7812 26.5578 21.6655 28.4423 24 28.4423C26.3345 28.4423 28.2187 26.5578 28.2187 24.2235V12.9735C28.2187 10.639 26.3345 8.75476 24 8.75476Z" fill="white"/>
</svg>
