<svg width="10" height="16" viewBox="0 0 10 16" fill="none" xmlns="http://www.w3.org/2000/svg">
<path d="M7.12947 0.478254C7.27062 0.329626 7.44006 0.210728 7.62783 0.128557C7.81561 0.0463862 8.01792 0.00260148 8.22287 -0.000220513C8.42782 -0.0030425 8.63126 0.0351552 8.82122 0.112125C9.01119 0.189095 9.18384 0.303282 9.32902 0.447968C9.47424 0.591765 9.58886 0.76347 9.66596 0.95274C9.78411 1.23903 9.81287 1.55437 9.74845 1.8573C9.68403 2.16024 9.52946 2.43659 9.30504 2.65004L4.18665 7.75076C4.15023 7.78668 4.12147 7.82961 4.1021 7.87695C4.08214 7.92384 4.07186 7.97427 4.07186 8.02523C4.07186 8.07619 4.08214 8.12662 4.1021 8.17351C4.12094 8.22113 4.14977 8.26416 4.18665 8.2997L9.30504 13.408C9.52603 13.6428 9.66764 13.9412 9.70985 14.2608C9.75207 14.5805 9.69275 14.9054 9.54029 15.1895C9.38783 15.4737 9.14993 15.7027 8.86021 15.8443C8.57049 15.9859 8.24361 16.0328 7.92575 15.9785C7.6028 15.9043 7.31009 15.7336 7.08657 15.4889L0.707506 9.12248C0.471044 8.8975 0.310125 8.60476 0.246901 8.28456C0.198965 8.03943 0.212404 7.78626 0.286021 7.54759C0.359451 7.3098 0.489342 7.09332 0.664601 6.91662L7.12947 0.478254Z" fill="#E74111"/>
</svg>
