<svg width="65" height="61" viewBox="0 0 65 61" fill="none" xmlns="http://www.w3.org/2000/svg">
<g id="Qara">
<path id="Vector" d="M30.294 59.6113C28.166 60.1761 25.9659 60.4566 23.7569 60.4448C17.3799 60.4448 11.9425 58.3042 7.44471 54.0229C2.9469 49.7416 0.700037 44.5629 0.704107 38.4866C0.704107 32.413 2.95097 27.2342 7.44471 22.9504C11.9384 18.6665 17.3758 16.5297 23.7569 16.5401C30.1339 16.5401 35.5713 18.6801 40.0691 22.9601C44.5669 27.24 46.8144 32.4156 46.8117 38.4866V60.4448H36.9308V38.1532C36.8616 34.8541 35.5726 32.0111 33.0639 29.6243C31.857 28.3945 30.4025 27.4086 28.7872 26.7254C27.1719 26.0422 25.4287 25.6756 23.6615 25.6474C21.8943 25.6193 20.1392 25.9301 18.5008 26.5615C16.8624 27.1929 15.3742 28.1319 14.1248 29.3225C12.8753 30.5132 11.8903 31.9311 11.2282 33.492C10.5662 35.0528 10.2408 36.7245 10.2713 38.4077C10.3018 40.0908 10.6877 41.7508 11.4059 43.2889C12.1242 44.8271 13.1601 46.2118 14.4519 47.3606C16.4993 49.2989 19.1545 50.5485 22.0148 50.92C24.8751 51.2915 27.7846 50.7646 30.3021 49.4192L30.294 59.6113Z" fill="#E74111"/>
<path id="Vector_2" d="M23.7998 0V9.34696C27.8176 9.34696 31.7961 10.1007 35.5081 11.5651C39.2201 13.0295 42.5929 15.176 45.4339 17.8818C48.275 20.5877 50.5286 23.8001 52.0662 27.3355C53.6037 30.8709 54.3951 34.6602 54.3951 38.4869H64.2109C64.2109 17.2304 46.1179 0 23.7998 0Z" fill="#FBBA00"/>
</g>
</svg>
