<svg width="113" height="44" viewBox="0 0 113 44" fill="none" xmlns="http://www.w3.org/2000/svg">
<g id="Qara">
<path id="Vector" d="M17.7114 36.4324H13.5181C9.77895 36.4324 6.59077 35.1421 3.95351 32.5616C1.31625 29.9811 -0.00158967 26.8597 1.43905e-06 23.1973C1.43905e-06 19.5365 1.31784 16.415 3.95351 13.833C6.58918 11.2509 9.77736 9.96303 13.5181 9.96926C17.2572 9.96926 20.4453 11.2591 23.0826 13.8388C25.7199 16.4186 27.0373 19.54 27.0349 23.2032V43.9998H21.2413V22.9905C21.2007 21.002 20.4449 19.2884 18.974 17.8498C18.2569 17.1475 17.4055 16.5903 16.4684 16.2102C15.5314 15.8301 14.527 15.6344 13.5127 15.6344C12.4984 15.6344 11.494 15.8301 10.557 16.2102C9.61989 16.5903 8.7685 17.1475 8.05141 17.8498C6.96884 18.9074 6.23129 20.2559 5.93224 21.7243C5.63318 23.1927 5.78607 24.715 6.37153 26.0983C6.95699 27.4816 7.94867 28.6636 9.22092 29.4945C10.4932 30.3254 11.9887 30.7679 13.5181 30.7659H17.7114V36.4324Z" fill="#E74111"/>
<path id="Vector_2" d="M48.2467 35.93C46.9989 36.2705 45.7089 36.4396 44.4137 36.4324C40.6746 36.4324 37.4868 35.1421 34.8503 32.5616C32.2139 29.9811 30.8972 26.8597 30.9004 23.1973C30.9004 19.5365 32.2182 16.415 34.8539 13.833C37.4896 11.2509 40.6762 9.96303 44.4137 9.96926C48.1528 9.96926 51.341 11.2591 53.9782 13.8388C56.6155 16.4186 57.9333 19.54 57.9317 23.2032V36.4324H52.1417V22.9964C52.1011 21.0078 51.3453 19.2943 49.8744 17.8556C49.1627 17.1306 48.3105 16.5518 47.3675 16.1531C46.4246 15.7545 45.4099 15.5439 44.3829 15.5339C43.3559 15.5238 42.3371 15.7144 41.3862 16.0946C40.4354 16.4747 39.5715 17.0367 38.8451 17.7477C38.1188 18.4586 37.5446 19.3043 37.1561 20.2352C36.7677 21.1661 36.5728 22.1635 36.5828 23.169C36.5929 24.1746 36.8077 25.168 37.2146 26.0913C37.6216 27.0146 38.2126 27.8491 38.953 28.546C40.1535 29.7143 41.7103 30.4675 43.3874 30.6914C45.0645 30.9153 46.7705 30.5977 48.2467 29.7868V35.93Z" fill="#E74111"/>
<path id="Vector_3" d="M75.3098 15.6358C73.2616 15.6364 71.2974 16.4332 69.849 17.8511C68.4005 19.269 67.5863 21.192 67.5854 23.1973V36.4324H61.793V23.1973C61.793 19.5365 63.1104 16.415 65.7453 13.833C68.3802 11.2509 71.5683 9.96303 75.3098 9.96926V15.6358Z" fill="#E74111"/>
<path id="Vector_4" d="M92.8147 35.93C91.5669 36.2704 90.277 36.4395 88.9817 36.4324C85.2426 36.4324 82.0544 35.1421 79.4172 32.5616C76.7799 29.9811 75.4625 26.8597 75.4648 23.1973C75.4648 19.5365 76.7823 16.415 79.4172 13.833C82.052 11.2509 85.2402 9.96303 88.9817 9.96926C92.7208 9.96926 95.909 11.2591 98.5463 13.8388C101.184 16.4186 102.501 19.538 102.5 23.1973V36.4324H96.7061V22.9964C96.6656 21.0078 95.9098 19.2943 94.4388 17.8556C93.7311 17.1144 92.8783 16.5202 91.9312 16.1084C90.9841 15.6966 89.962 15.4756 88.9258 15.4586C87.8896 15.4416 86.8605 15.629 85.8999 16.0096C84.9392 16.3901 84.0666 16.9561 83.334 17.6737C82.6014 18.3914 82.0238 19.2461 81.6356 20.1868C81.2474 21.1276 81.0566 22.1352 81.0745 23.1497C81.0924 24.1642 81.3187 25.1648 81.7398 26.0919C82.1609 27.019 82.7683 27.8536 83.5258 28.546C84.7263 29.7143 86.2831 30.4675 87.9602 30.6914C89.6373 30.9153 91.3433 30.5977 92.8195 29.7868L92.8147 35.93Z" fill="#E74111"/>
<path id="Vector_5" d="M89.0068 0V5.63378C91.3627 5.63378 93.6954 6.08808 95.8719 6.97075C98.0484 7.85341 100.026 9.14715 101.692 10.7781C103.358 12.409 104.679 14.3453 105.581 16.4762C106.482 18.6071 106.946 20.8911 106.946 23.1976H112.702C112.702 10.3855 102.093 0 89.0068 0Z" fill="#FBBA00"/>
</g>
</svg>
