<svg width="33" height="32" viewBox="0 0 33 32" fill="none" xmlns="http://www.w3.org/2000/svg">
<g clip-path="url(#clip0_2570_21501)">
<path d="M16.489 0C11.3257 0 7.125 4.20068 7.125 9.36401V9.48071C7.125 11.1179 8.45703 12.4497 10.094 12.4497C10.55 12.4497 10.9883 12.3486 11.3965 12.1492C12.4246 11.6467 13.0632 10.6243 13.0632 9.48071V9.36401C13.0632 7.4751 14.6001 5.93823 16.489 5.93823C18.3782 5.93823 19.915 7.4751 19.915 9.36401C19.915 11.2532 18.3782 12.79 16.489 12.79H16.0376C14.4004 12.79 13.0686 14.1218 13.0686 15.759V20.6648C13.0686 22.302 14.4004 23.634 16.0376 23.634C17.6748 23.634 19.0066 22.302 19.0066 20.6648V18.3848C23.0173 17.2678 25.853 13.5916 25.853 9.36401C25.8533 4.20068 21.6526 0 16.489 0Z" fill="#F04E23"/>
<path d="M15.989 24.7607C13.9932 24.7607 12.3696 26.3845 12.3696 28.3804C12.3696 30.376 13.9934 31.9998 15.989 31.9998C17.9849 31.9998 19.6084 30.376 19.6084 28.3804C19.6084 26.3845 17.9849 24.7607 15.989 24.7607Z" fill="#F04E23"/>
</g>
<defs>
<clipPath id="clip0_2570_21501">
<rect width="32" height="32" fill="white" transform="translate(0.5)"/>
</clipPath>
</defs>
</svg>
