<svg width="15" height="18" viewBox="0 0 15 18" fill="none" xmlns="http://www.w3.org/2000/svg">
<path d="M14.5889 6.84706C14.5889 9.25705 13.3436 11.3762 11.4616 12.5962C11.1781 12.7802 10.9413 13.0274 10.7747 13.3213L8.31571 17.6653C8.31021 17.6749 8.30458 17.6843 8.29827 17.6935C8.03556 18.1112 7.41483 18.102 7.16764 17.6653L4.70862 13.3213C4.54245 13.0278 4.30611 12.7806 4.02294 12.5973C2.11393 11.3602 0.8597 9.19841 0.895269 6.74613C0.948415 3.05966 3.95771 0.0518809 7.64417 0.000657181C7.86499 -0.00236406 8.08348 0.00505171 8.29909 0.0224925C11.8201 0.305665 14.5889 3.25302 14.5889 6.84706Z" fill="#1D267D"/>
<path d="M14.5889 6.84706C14.5889 9.25705 13.3436 11.3762 11.4616 12.5962C11.1781 12.7802 10.9413 13.0274 10.7747 13.3213L8.31571 17.6653C8.31022 17.6749 8.30459 17.6842 8.29827 17.6934C8.29195 17.6842 8.28646 17.6749 8.28083 17.6653L5.82181 13.3213C5.65564 13.0278 5.4193 12.7806 5.13613 12.5973C3.22698 11.3602 1.97289 9.19841 2.00846 6.74612C2.05927 3.21361 4.82439 0.304565 8.29909 0.0224915C11.8201 0.305664 14.5889 3.25302 14.5889 6.84706Z" fill="#1D267D"/>
<path d="M12.7974 6.83882C12.7974 9.63169 10.5329 11.8946 7.74167 11.8946C4.9495 11.8946 2.68604 9.63114 2.68604 6.83882C2.68604 3.83763 5.29131 1.48394 8.29827 1.81394C10.8286 2.09121 12.7974 4.23506 12.7974 6.83882Z" fill="#FDECE8"/>
</svg>
