<svg width="118" height="118" viewBox="0 0 118 118" fill="none" xmlns="http://www.w3.org/2000/svg">
<g clip-path="url(#clip0_1178_245)">
<path fill-rule="evenodd" clip-rule="evenodd" d="M59.0295 16.9355C57.6949 16.9355 56.3606 16.9575 55.3433 17.0013C49.6587 17.2459 44.0499 18.0571 38.5921 19.3982L53.4744 34.2832C54.0963 34.232 54.7192 34.1885 55.3438 34.1549C57.3771 34.0455 60.6818 34.0455 62.7152 34.1549C78.3241 34.995 93.1826 41.1495 104.814 51.5926C106.329 52.953 108.657 52.9615 110.097 51.5215L116.998 44.6205C118.438 43.1804 118.444 40.8391 116.943 39.4624C102.079 25.8245 82.8704 17.8686 62.7161 17.0013C61.6988 16.9575 60.364 16.9355 59.0295 16.9355V16.9355ZM15.5359 28.792C10.402 31.8166 5.56329 35.3824 1.11632 39.4624C-0.384202 40.8391 -0.379101 43.1804 1.06095 44.6205L7.96193 51.5215C9.40199 52.9615 11.7304 52.953 13.2456 51.5926C17.7736 47.5271 22.7929 44.1161 28.1531 41.4115L15.5359 28.792ZM72.0554 52.8683L90.4015 71.2175L92.7678 68.8511C94.2079 67.4111 94.2156 65.0647 92.6764 63.7318C86.6953 58.5523 79.63 54.8528 72.0554 52.8683V52.8683ZM41.1453 54.4064C35.4106 56.5347 30.0636 59.678 25.3825 63.7318C23.8433 65.0647 23.8515 67.4111 25.2916 68.8511L32.1921 75.7521C33.6322 77.1922 35.9564 77.1736 37.5419 75.897C42.6264 71.8035 48.7783 69.2467 55.2659 68.5297L41.1453 54.4064ZM59.0295 85.5258C57.6964 85.5258 56.3632 85.6342 55.3703 85.8513C53.385 86.2854 51.4923 87.0694 49.7815 88.1663C48.0704 89.2634 48.0822 91.6417 49.5222 93.0818L56.4223 99.9818C57.1138 100.673 58.0517 101.062 59.0297 101.062C60.0076 101.062 60.9456 100.673 61.6371 99.9818L68.5372 93.0818C69.9772 91.6417 69.989 89.2634 68.2779 88.1663C66.5671 87.0694 64.6739 86.2854 62.6886 85.8513C61.6957 85.6342 60.3626 85.5258 59.0295 85.5258Z" fill="#E74111"/>
<path d="M14.7858 22.326C11.4954 19.0356 11.1935 14.0028 14.1115 11.0848C17.0295 8.16677 22.0624 8.46865 25.3528 11.759L94.9231 81.3293C98.2135 84.6197 98.5153 89.6526 95.5973 92.5706C92.6793 95.4886 87.6465 95.1867 84.3561 91.8963L14.7858 22.326Z" fill="#FBBA00"/>
</g>
<defs>
<clipPath id="clip0_1178_245">
<rect width="118" height="118" fill="white"/>
</clipPath>
</defs>
</svg>
